# xmcd CD database file
#
# Track frame offsets:
#	187
#	21407
#	41487
#	58815
#	72682
#	93550
#	109625
#	124912
#	146630
#	165987
#
# Disc length: 2526 seconds
#
# Revision: 1
# Processed by: cddbd v1.5.2PL0 Copyright (c) Steve Scherf et al.
# Submitted via: CDex 1.70beta2
#
DISCID=9109dc0a
DTITLE=Robben Ford - Love's A Heartache
DYEAR=1983
DGENRE=Pop
TTITLE0=Standing On The Outside
TTITLE1=Time Flies
TTITLE2=Save Your Nights For Me
TTITLE3=Me On The One Side
TTITLE4=Wheels Of Love
TTITLE5=Tell That Girl
TTITLE6=Illusions
TTITLE7=Sunset Memory
TTITLE8=Love's A Heartache
TTITLE9=Sun Lake
EXTD=1983 - Polydor YEAR: 1983
EXTT0=
EXTT1=
EXTT2=
EXTT3=
EXTT4=
EXTT5=
EXTT6=
EXTT7=
EXTT8=
EXTT9=
PLAYORDER=
